 <svg  version="1.0" xmlns="http://www.w3.org/2000/svg"  width="300.000000pt" height="257.000000pt" viewBox="0 0 300.000000 257.000000"  preserveAspectRatio="xMidYMid meet">  <g transform="translate(0.000000,257.000000) scale(0.100000,-0.100000)" fill="#ffffff" stroke="none"> <path d="M1088 2163 c-7 -9 -51 -48 -98 -87 -47 -38 -107 -91 -135 -117 -43 -40 -145 -128 -224 -194 -13 -11 -38 -33 -55 -48 -17 -16 -66 -59 -109 -95 -72 -63 -76 -68 -55 -76 13 -4 32 -12 43 -17 11 -5 62 -23 113 -40 l92 -31 52 44 c29 24 70 61 93 83 22 22 76 69 119 105 44 36 98 82 120 104 65 61 101 86 124 86 20 0 223 -67 457 -150 175 -62 144 -68 281 50 65 56 124 104 129 106 14 6 318 -101 323 -114 4 -14 -68 -84 -252 -241 -108 -92 -153 -131 -196 -170 -39 -36 -49 -41 -79 -36 -18 4 -41 10 -50 15 -9 5 -99 37 -201 70 -102 34 -194 65 -205 70 -11 4 -48 17 -83 28 l-63 20 -117 -99 c-226 -191 -307 -261 -358 -307 -27 -26 -72 -65 -99 -87 -102 -84 -322 -272 -358 -307 -16 -16 -34 -28 -40 -29 -18 -1 43 -26 128 -52 28 -8 102 -34 165 -57 63 -23 160 -57 215 -75 55 -19 167 -57 248 -85 l149 -51 31 24 c18 14 49 41 69 61 20 20 39 36 41 36 2 0 25 21 51 46 44 42 51 45 84 39 20 -4 54 -15 76 -25 39 -17 107 -41 171 -60 45 -13 147 -49 170 -60 11 -5 57 -21 102 -36 82 -27 83 -27 100 -8 10 11 34 32 53 48 19 16 60 51 90 78 30 27 73 66 96 86 22 20 76 66 119 102 43 36 91 76 106 90 15 14 58 52 95 85 37 33 83 74 102 91 l35 30 -59 21 c-90 31 -187 64 -204 69 -9 2 -43 -22 -80 -56 -36 -34 -85 -77 -110 -98 -55 -45 -177 -150 -206 -177 -76 -72 -105 -95 -116 -95 -11 0 -74 20 -123 40 -37 15 -60 23 -75 26 -8 1 -87 28 -175 59 -88 31 -170 59 -183 62 -12 3 -25 9 -28 14 -11 18 -38 8 -87 -33 -29 -24 -63 -52 -76 -63 -13 -11 -46 -39 -73 -62 -46 -41 -80 -53 -92 -34 -3 5 -21 12 -40 15 -19 4 -48 14 -65 22 -18 9 -37 17 -44 18 -7 1 -38 11 -69 21 -47 15 -58 23 -58 41 0 12 10 28 23 37 18 12 75 62 137 120 8 8 66 58 129 112 63 54 128 111 145 128 53 51 59 50 242 -10 93 -31 178 -59 189 -63 11 -5 34 -13 50 -18 17 -6 68 -24 115 -41 81 -29 86 -30 107 -13 60 48 162 133 193 162 19 17 60 53 90 78 163 140 205 177 210 182 7 7 121 105 205 175 39 32 90 78 115 101 25 24 67 60 95 80 l49 38 -111 36 c-62 20 -115 39 -119 43 -4 4 -14 7 -23 7 -9 0 -28 6 -43 14 -15 8 -41 17 -58 21 -17 4 -43 13 -58 21 -15 8 -32 14 -38 14 -6 0 -33 9 -60 19 -27 10 -71 26 -99 34 -61 19 -212 73 -240 86 -53 25 -58 22 -168 -77 -17 -16 -54 -49 -80 -72 l-48 -44 -52 14 c-29 7 -56 16 -62 20 -5 4 -28 12 -50 18 -22 6 -67 21 -100 33 -33 12 -73 25 -90 29 -16 5 -75 25 -130 45 -150 55 -152 56 -167 38z"/> </g> </svg> 